<svg width="18" height="21" viewBox="0 0 18 21" fill="none" xmlns="http://www.w3.org/2000/svg">
<g clip-path="url(#clip0_1_1050)">
<path d="M0.25 3C0.25 1.62109 1.37109 0.5 2.75 0.5H15.25C16.6289 0.5 17.75 1.62109 17.75 3V18C17.75 19.3789 16.6289 20.5 15.25 20.5H2.75C1.37109 20.5 0.25 19.3789 0.25 18V3ZM7.39844 11.3906C6.30859 10.875 5.50781 9.85156 5.30078 8.625H6.82812C6.89062 9.8125 7.12891 10.7266 7.39844 11.3906ZM9.01172 11.75H9H8.98828C8.89453 11.6133 8.76562 11.4023 8.63281 11.1055C8.39844 10.5742 8.14844 9.76562 8.07812 8.625H9.91797C9.84766 9.76562 9.60156 10.5742 9.36328 11.1055C9.23047 11.4023 9.10156 11.6133 9.00781 11.75H9.01172ZM10.6016 11.3906C10.8672 10.7227 11.1055 9.8125 11.1719 8.625H12.6992C12.4922 9.85156 11.6914 10.875 10.6016 11.3906ZM11.1719 7.375C11.1094 6.1875 10.8711 5.27344 10.6016 4.60938C11.6914 5.125 12.4922 6.14844 12.6992 7.375H11.1719ZM8.98828 4.25H9H9.01172C9.10547 4.38672 9.23438 4.59766 9.36719 4.89453C9.60156 5.42578 9.85156 6.23438 9.92188 7.375H8.08203C8.15234 6.23438 8.39844 5.42578 8.63672 4.89453C8.76953 4.59766 8.89844 4.38672 8.99219 4.25H8.98828ZM7.39844 4.60938C7.13281 5.27734 6.89453 6.1875 6.82812 7.375H5.30078C5.50781 6.14844 6.30859 5.125 7.39844 4.60938ZM14 8C14 6.67392 13.4732 5.40215 12.5355 4.46447C11.5979 3.52678 10.3261 3 9 3C7.67392 3 6.40215 3.52678 5.46447 4.46447C4.52678 5.40215 4 6.67392 4 8C4 9.32608 4.52678 10.5979 5.46447 11.5355C6.40215 12.4732 7.67392 13 9 13C10.3261 13 11.5979 12.4732 12.5355 11.5355C13.4732 10.5979 14 9.32608 14 8ZM4.625 15.5C4.28125 15.5 4 15.7812 4 16.125C4 16.4688 4.28125 16.75 4.625 16.75H13.375C13.7188 16.75 14 16.4688 14 16.125C14 15.7812 13.7188 15.5 13.375 15.5H4.625Z" fill="#3A6A8D"/>
</g>
<defs>
<clipPath id="clip0_1_1050">
<path d="M0.25 0.5H17.75V20.5H0.25V0.5Z" fill="white"/>
</clipPath>
</defs>
</svg>
