<svg width="14" height="15" viewBox="0 0 14 15" fill="none" xmlns="http://www.w3.org/2000/svg">
<g clip-path="url(#clip0_1_2448)">
<path d="M7 1.625C7.38828 1.625 7.74648 1.83008 7.94336 2.16641L13.8496 12.2289C14.0492 12.568 14.0492 12.9863 13.8551 13.3254C13.6609 13.6645 13.2973 13.875 12.9062 13.875H1.09375C0.702732 13.875 0.33906 13.6645 0.14492 13.3254C-0.0492209 12.9863 -0.0464865 12.5652 0.150388 12.2289L6.05664 2.16641C6.25351 1.83008 6.61172 1.625 7 1.625ZM7 5.125C6.63633 5.125 6.34375 5.41758 6.34375 5.78125V8.84375C6.34375 9.20742 6.63633 9.5 7 9.5C7.36367 9.5 7.65625 9.20742 7.65625 8.84375V5.78125C7.65625 5.41758 7.36367 5.125 7 5.125ZM7.875 11.25C7.875 11.0179 7.78281 10.7954 7.61872 10.6313C7.45462 10.4672 7.23206 10.375 7 10.375C6.76793 10.375 6.54537 10.4672 6.38128 10.6313C6.21719 10.7954 6.125 11.0179 6.125 11.25C6.125 11.4821 6.21719 11.7046 6.38128 11.8687C6.54537 12.0328 6.76793 12.125 7 12.125C7.23206 12.125 7.45462 12.0328 7.61872 11.8687C7.78281 11.7046 7.875 11.4821 7.875 11.25Z" fill="#DC2626"/>
</g>
<defs>
<clipPath id="clip0_1_2448">
<path d="M0 0.75H14V14.75H0V0.75Z" fill="white"/>
</clipPath>
</defs>
</svg>
