<svg width="15" height="15" viewBox="0 0 15 15" fill="none" xmlns="http://www.w3.org/2000/svg">
<g clip-path="url(#clip0_1_2461)">
<path d="M7.65625 14.75C9.51277 14.75 11.2932 14.0125 12.606 12.6997C13.9188 11.387 14.6562 9.60652 14.6562 7.75C14.6562 5.89348 13.9188 4.11301 12.606 2.80025C11.2932 1.4875 9.51277 0.75 7.65625 0.75C5.79973 0.75 4.01926 1.4875 2.7065 2.80025C1.39375 4.11301 0.65625 5.89348 0.65625 7.75C0.65625 9.60652 1.39375 11.387 2.7065 12.6997C4.01926 14.0125 5.79973 14.75 7.65625 14.75ZM6.5625 9.9375H7.21875V8.1875H6.5625C6.19883 8.1875 5.90625 7.89492 5.90625 7.53125C5.90625 7.16758 6.19883 6.875 6.5625 6.875H7.875C8.23867 6.875 8.53125 7.16758 8.53125 7.53125V9.9375H8.75C9.11367 9.9375 9.40625 10.2301 9.40625 10.5938C9.40625 10.9574 9.11367 11.25 8.75 11.25H6.5625C6.19883 11.25 5.90625 10.9574 5.90625 10.5938C5.90625 10.2301 6.19883 9.9375 6.5625 9.9375ZM7.65625 4.25C7.88831 4.25 8.11087 4.34219 8.27497 4.50628C8.43906 4.67038 8.53125 4.89294 8.53125 5.125C8.53125 5.35706 8.43906 5.57962 8.27497 5.74372C8.11087 5.90781 7.88831 6 7.65625 6C7.42419 6 7.20163 5.90781 7.03753 5.74372C6.87344 5.57962 6.78125 5.35706 6.78125 5.125C6.78125 4.89294 6.87344 4.67038 7.03753 4.50628C7.20163 4.34219 7.42419 4.25 7.65625 4.25Z" fill="#16A34A"/>
</g>
<defs>
<clipPath id="clip0_1_2461">
<path d="M0.65625 0.75H14.6562V14.75H0.65625V0.75Z" fill="white"/>
</clipPath>
</defs>
</svg>
