<svg width="14" height="16" viewBox="0 0 14 16" fill="none" xmlns="http://www.w3.org/2000/svg">
<g clip-path="url(#clip0_1_1004)">
<path d="M14.001 1.00076C14.001 0.597638 13.7572 0.232013 13.3822 0.0757631C13.0072 -0.0804869 12.5791 0.00701311 12.2916 0.291388L10.9291 1.65701C9.4291 3.15701 7.39473 4.00076 5.27285 4.00076H5.00098H4.00098H1.00098C-0.102148 4.00076 -0.999023 4.89764 -0.999023 6.00076V9.00076C-0.999023 10.1039 -0.102148 11.0008 1.00098 11.0008V15.0008C1.00098 15.5539 1.44785 16.0008 2.00098 16.0008H4.00098C4.5541 16.0008 5.00098 15.5539 5.00098 15.0008V11.0008H5.27285C7.39473 11.0008 9.4291 11.8445 10.9291 13.3445L12.2916 14.707C12.5791 14.9945 13.0072 15.0789 13.3822 14.9226C13.7572 14.7664 14.001 14.4039 14.001 13.9976V9.38826C14.5822 9.11326 15.001 8.37264 15.001 7.50076C15.001 6.62889 14.5822 5.88826 14.001 5.61326V1.00076ZM12.001 3.39764V7.50076V11.6039C10.1635 9.93201 7.7666 9.00076 5.27285 9.00076H5.00098V6.00076H5.27285C7.7666 6.00076 10.1635 5.06951 12.001 3.39764Z" fill="#4B5563"/>
</g>
<defs>
<clipPath id="clip0_1_1004">
<path d="M0 0H14V16H0V0Z" fill="white"/>
</clipPath>
</defs>
</svg>
