<svg width="24" height="21" viewBox="0 0 24 21" fill="none" xmlns="http://www.w3.org/2000/svg">
<g clip-path="url(#clip0_1_1070)">
<path d="M0.75 4.25H23.25C23.25 2.87109 22.1289 1.75 20.75 1.75H3.25C1.87109 1.75 0.75 2.87109 0.75 4.25ZM0.75 5.5V16.75C0.75 18.1289 1.87109 19.25 3.25 19.25H20.75C22.1289 19.25 23.25 18.1289 23.25 16.75V5.5H0.75ZM3.25 16.332C3.25 15.1797 4.18359 14.25 5.33203 14.25H9.91797C11.0703 14.25 12 15.1836 12 16.332C12 16.5625 11.8125 16.75 11.582 16.75H3.66797C3.4375 16.75 3.25 16.5625 3.25 16.332ZM7.625 8C8.28804 8 8.92393 8.26339 9.39277 8.73223C9.86161 9.20107 10.125 9.83696 10.125 10.5C10.125 11.163 9.86161 11.7989 9.39277 12.2678C8.92393 12.7366 8.28804 13 7.625 13C6.96196 13 6.32607 12.7366 5.85723 12.2678C5.38839 11.7989 5.125 11.163 5.125 10.5C5.125 9.83696 5.38839 9.20107 5.85723 8.73223C6.32607 8.26339 6.96196 8 7.625 8ZM14.5 8.625C14.5 8.28125 14.7812 8 15.125 8H20.125C20.4688 8 20.75 8.28125 20.75 8.625C20.75 8.96875 20.4688 9.25 20.125 9.25H15.125C14.7812 9.25 14.5 8.96875 14.5 8.625ZM14.5 11.125C14.5 10.7812 14.7812 10.5 15.125 10.5H20.125C20.4688 10.5 20.75 10.7812 20.75 11.125C20.75 11.4688 20.4688 11.75 20.125 11.75H15.125C14.7812 11.75 14.5 11.4688 14.5 11.125ZM14.5 13.625C14.5 13.2812 14.7812 13 15.125 13H20.125C20.4688 13 20.75 13.2812 20.75 13.625C20.75 13.9688 20.4688 14.25 20.125 14.25H15.125C14.7812 14.25 14.5 13.9688 14.5 13.625Z" fill="#4F3B69"/>
</g>
<defs>
<clipPath id="clip0_1_1070">
<path d="M0.75 0.5H23.25V20.5H0.75V0.5Z" fill="white"/>
</clipPath>
</defs>
</svg>
