<svg width="15" height="15" viewBox="0 0 15 15" fill="none" xmlns="http://www.w3.org/2000/svg">
<g clip-path="url(#clip0_1_2474)">
<path d="M4.61018 11.2747L3.76526 10.4298C3.53284 10.1973 3.45081 9.861 3.55471 9.54928C3.63675 9.30592 3.74612 8.98874 3.87737 8.62506H0.984402C0.749245 8.62506 0.530495 8.49928 0.412917 8.29421C0.295339 8.08913 0.298073 7.83756 0.418386 7.63522L1.85393 5.2153C2.2094 4.61647 2.85198 4.25006 3.54651 4.25006H5.7969C5.86253 4.14069 5.92815 4.03952 5.99378 3.94108C8.23323 0.637955 11.5692 0.52858 13.5598 0.894986C13.877 0.952408 14.1231 1.20124 14.1832 1.51842C14.5496 3.51178 14.4375 6.84499 11.1371 9.08444C11.0414 9.15006 10.9375 9.21569 10.8282 9.28131V11.5317C10.8282 12.2262 10.4617 12.8715 9.86292 13.2243L7.443 14.6598C7.24065 14.7801 6.98909 14.7829 6.78401 14.6653C6.57893 14.5477 6.45315 14.3317 6.45315 14.0938V11.1626C6.0676 11.2965 5.73128 11.4059 5.47698 11.488C5.17073 11.5864 4.83714 11.5016 4.60745 11.2747H4.61018ZM10.8282 5.34381C11.1182 5.34381 11.3964 5.22858 11.6015 5.02346C11.8067 4.81834 11.9219 4.54014 11.9219 4.25006C11.9219 3.95998 11.8067 3.68178 11.6015 3.47667C11.3964 3.27155 11.1182 3.15631 10.8282 3.15631C10.5381 3.15631 10.2599 3.27155 10.0548 3.47667C9.84964 3.68178 9.7344 3.95998 9.7344 4.25006C9.7344 4.54014 9.84964 4.81834 10.0548 5.02346C10.2599 5.22858 10.5381 5.34381 10.8282 5.34381Z" fill="#2563EB"/>
</g>
<defs>
<clipPath id="clip0_1_2474">
<path d="M0.328125 0.75H14.3281V14.75H0.328125V0.75Z" fill="white"/>
</clipPath>
</defs>
</svg>
