<svg width="18" height="19" viewBox="0 0 18 19" fill="none" xmlns="http://www.w3.org/2000/svg">
<g clip-path="url(#clip0_1_999)">
<path d="M6.46875 1.9375H11.5312C11.6859 1.9375 11.8125 2.06406 11.8125 2.21875V3.625H6.1875V2.21875C6.1875 2.06406 6.31406 1.9375 6.46875 1.9375ZM4.5 2.21875V3.625H2.25C1.00898 3.625 0 4.63398 0 5.875V9.25H6.75H11.25H18V5.875C18 4.63398 16.991 3.625 15.75 3.625H13.5V2.21875C13.5 1.13242 12.6176 0.25 11.5312 0.25H6.46875C5.38242 0.25 4.5 1.13242 4.5 2.21875ZM18 10.375H11.25V11.5C11.25 12.1223 10.7473 12.625 10.125 12.625H7.875C7.25273 12.625 6.75 12.1223 6.75 11.5V10.375H0V14.875C0 16.116 1.00898 17.125 2.25 17.125H15.75C16.991 17.125 18 16.116 18 14.875V10.375Z" fill="#4B5563"/>
</g>
<defs>
<clipPath id="clip0_1_999">
<path d="M0 0.25H18V18.25H0V0.25Z" fill="white"/>
</clipPath>
</defs>
</svg>
