<svg width="164" height="52" viewBox="0 0 164 52" fill="none" xmlns="http://www.w3.org/2000/svg">
<path d="M163.594 44H0V0H163.594V44Z" stroke="#E5E7EB"/>
<path d="M32 2C36.4183 2 40 5.58172 40 10V34C40 38.4183 36.4183 42 32 42H8C3.58172 42 0 38.4183 0 34V10C0 5.58172 3.58172 2 8 2H32Z" fill="url(#paint0_linear_4284_122)"/>
<path d="M32 2C36.4183 2 40 5.58172 40 10V34C40 38.4183 36.4183 42 32 42H8C3.58172 42 0 38.4183 0 34V10C0 5.58172 3.58172 2 8 2H32Z" stroke="#E5E7EB"/>
<path d="M29 36H11V8H29V36Z" stroke="#E5E7EB"/>
<g clip-path="url(#clip0_4284_122)">
<path d="M20 30.25C22.3869 30.25 24.6761 29.3018 26.364 27.614C28.0518 25.9261 29 23.6369 29 21.25C29 18.8631 28.0518 16.5739 26.364 14.886C24.6761 13.1982 22.3869 12.25 20 12.25C17.6131 12.25 15.3239 13.1982 13.636 14.886C11.9482 16.5739 11 18.8631 11 21.25C11 23.6369 11.9482 25.9261 13.636 27.614C15.3239 29.3018 17.6131 30.25 20 30.25ZM21.7824 23.6793L16.7094 25.6305C16.0273 25.8941 15.3559 25.2227 15.6195 24.5406L17.5707 19.4676C17.6867 19.1688 17.9188 18.9367 18.2176 18.8207L23.2906 16.8695C23.9727 16.6059 24.6441 17.2773 24.3805 17.9594L22.4293 23.0324C22.3168 23.3313 22.0813 23.5633 21.7824 23.6793ZM21.125 21.25C21.125 20.9516 21.0065 20.6655 20.7955 20.4545C20.5845 20.2435 20.2984 20.125 20 20.125C19.7016 20.125 19.4155 20.2435 19.2045 20.4545C18.9935 20.6655 18.875 20.9516 18.875 21.25C18.875 21.5484 18.9935 21.8345 19.2045 22.0455C19.4155 22.2565 19.7016 22.375 20 22.375C20.2984 22.375 20.5845 22.2565 20.7955 22.0455C21.0065 21.8345 21.125 21.5484 21.125 21.25Z" fill="white"/>
</g>
<path d="M163.594 52H52V8H163.594V52Z" stroke="#E5E7EB"/>
<path d="M56.66 17.7V20.54H61.24V23.18H56.66V26.26H61.84V29H53.24V14.96H61.84V17.7H56.66ZM70.2803 26.1V29H68.5403C67.3003 29 66.3336 28.7 65.6403 28.1C64.947 27.4867 64.6003 26.4933 64.6003 25.12V20.68H63.2403V17.84H64.6003V15.12H68.0203V17.84H70.2603V20.68H68.0203V25.16C68.0203 25.4933 68.1003 25.7333 68.2603 25.88C68.4203 26.0267 68.687 26.1 69.0603 26.1H70.2803ZM79.0453 17.72C80.3253 17.72 81.352 18.1467 82.1253 19C82.8986 19.84 83.2853 21 83.2853 22.48V29H79.8853V22.94C79.8853 22.1933 79.692 21.6133 79.3053 21.2C78.9186 20.7867 78.3986 20.58 77.7453 20.58C77.092 20.58 76.572 20.7867 76.1853 21.2C75.7986 21.6133 75.6053 22.1933 75.6053 22.94V29H72.1853V14.2H75.6053V19.34C75.952 18.8467 76.4253 18.4533 77.0253 18.16C77.6253 17.8667 78.2986 17.72 79.0453 17.72ZM87.3819 16.68C86.7819 16.68 86.2885 16.5067 85.9019 16.16C85.5285 15.8 85.3419 15.36 85.3419 14.84C85.3419 14.3067 85.5285 13.8667 85.9019 13.52C86.2885 13.16 86.7819 12.98 87.3819 12.98C87.9685 12.98 88.4485 13.16 88.8219 13.52C89.2085 13.8667 89.4019 14.3067 89.4019 14.84C89.4019 15.36 89.2085 15.8 88.8219 16.16C88.4485 16.5067 87.9685 16.68 87.3819 16.68ZM89.0819 17.84V29H85.6619V17.84H89.0819ZM96.6403 29.16C95.547 29.16 94.5603 28.9267 93.6803 28.46C92.8136 27.9933 92.127 27.3267 91.6203 26.46C91.127 25.5933 90.8803 24.58 90.8803 23.42C90.8803 22.2733 91.1336 21.2667 91.6403 20.4C92.147 19.52 92.8403 18.8467 93.7203 18.38C94.6003 17.9133 95.587 17.68 96.6803 17.68C97.7736 17.68 98.7603 17.9133 99.6403 18.38C100.52 18.8467 101.214 19.52 101.72 20.4C102.227 21.2667 102.48 22.2733 102.48 23.42C102.48 24.5667 102.22 25.58 101.7 26.46C101.194 27.3267 100.494 27.9933 99.6003 28.46C98.7203 28.9267 97.7336 29.16 96.6403 29.16ZM96.6403 26.2C97.2936 26.2 97.847 25.96 98.3003 25.48C98.767 25 99.0003 24.3133 99.0003 23.42C99.0003 22.5267 98.7736 21.84 98.3203 21.36C97.8803 20.88 97.3336 20.64 96.6803 20.64C96.0136 20.64 95.4603 20.88 95.0203 21.36C94.5803 21.8267 94.3603 22.5133 94.3603 23.42C94.3603 24.3133 94.5736 25 95.0003 25.48C95.4403 25.96 95.987 26.2 96.6403 26.2ZM113.615 19.4C113.361 18.9333 112.995 18.58 112.515 18.34C112.048 18.0867 111.495 17.96 110.855 17.96C109.748 17.96 108.861 18.3267 108.195 19.06C107.528 19.78 107.195 20.7467 107.195 21.96C107.195 23.2533 107.541 24.2667 108.235 25C108.941 25.72 109.908 26.08 111.135 26.08C111.975 26.08 112.681 25.8667 113.255 25.44C113.841 25.0133 114.268 24.4 114.535 23.6H110.195V21.08H117.635V24.26C117.381 25.1133 116.948 25.9067 116.335 26.64C115.735 27.3733 114.968 27.9667 114.035 28.42C113.101 28.8733 112.048 29.1 110.875 29.1C109.488 29.1 108.248 28.8 107.155 28.2C106.075 27.5867 105.228 26.74 104.615 25.66C104.015 24.58 103.715 23.3467 103.715 21.96C103.715 20.5733 104.015 19.34 104.615 18.26C105.228 17.1667 106.075 16.32 107.155 15.72C108.235 15.1067 109.468 14.8 110.855 14.8C112.535 14.8 113.948 15.2067 115.095 16.02C116.255 16.8333 117.021 17.96 117.395 19.4H113.615ZM130.549 17.84V29H127.129V27.48C126.782 27.9733 126.309 28.3733 125.709 28.68C125.122 28.9733 124.469 29.12 123.749 29.12C122.896 29.12 122.142 28.9333 121.489 28.56C120.836 28.1733 120.329 27.62 119.969 26.9C119.609 26.18 119.429 25.3333 119.429 24.36V17.84H122.829V23.9C122.829 24.6467 123.022 25.2267 123.409 25.64C123.796 26.0533 124.316 26.26 124.969 26.26C125.636 26.26 126.162 26.0533 126.549 25.64C126.936 25.2267 127.129 24.6467 127.129 23.9V17.84H130.549ZM134.726 16.68C134.126 16.68 133.632 16.5067 133.246 16.16C132.872 15.8 132.686 15.36 132.686 14.84C132.686 14.3067 132.872 13.8667 133.246 13.52C133.632 13.16 134.126 12.98 134.726 12.98C135.312 12.98 135.792 13.16 136.166 13.52C136.552 13.8667 136.746 14.3067 136.746 14.84C136.746 15.36 136.552 15.8 136.166 16.16C135.792 16.5067 135.312 16.68 134.726 16.68ZM136.426 17.84V29H133.006V17.84H136.426ZM138.224 23.4C138.224 22.2533 138.437 21.2467 138.864 20.38C139.304 19.5133 139.897 18.8467 140.644 18.38C141.391 17.9133 142.224 17.68 143.144 17.68C143.877 17.68 144.544 17.8333 145.144 18.14C145.757 18.4467 146.237 18.86 146.584 19.38V14.2H150.004V29H146.584V27.4C146.264 27.9333 145.804 28.36 145.204 28.68C144.617 29 143.931 29.16 143.144 29.16C142.224 29.16 141.391 28.9267 140.644 28.46C139.897 27.98 139.304 27.3067 138.864 26.44C138.437 25.56 138.224 24.5467 138.224 23.4ZM146.584 23.42C146.584 22.5667 146.344 21.8933 145.864 21.4C145.397 20.9067 144.824 20.66 144.144 20.66C143.464 20.66 142.884 20.9067 142.404 21.4C141.937 21.88 141.704 22.5467 141.704 23.4C141.704 24.2533 141.937 24.9333 142.404 25.44C142.884 25.9333 143.464 26.18 144.144 26.18C144.824 26.18 145.397 25.9333 145.864 25.44C146.344 24.9467 146.584 24.2733 146.584 23.42ZM162.998 23.24C162.998 23.56 162.978 23.8933 162.938 24.24H155.198C155.252 24.9333 155.472 25.4667 155.858 25.84C156.258 26.2 156.745 26.38 157.318 26.38C158.172 26.38 158.765 26.02 159.098 25.3H162.738C162.552 26.0333 162.212 26.6933 161.718 27.28C161.238 27.8667 160.632 28.3267 159.898 28.66C159.165 28.9933 158.345 29.16 157.438 29.16C156.345 29.16 155.372 28.9267 154.518 28.46C153.665 27.9933 152.998 27.3267 152.518 26.46C152.038 25.5933 151.798 24.58 151.798 23.42C151.798 22.26 152.032 21.2467 152.498 20.38C152.978 19.5133 153.645 18.8467 154.498 18.38C155.352 17.9133 156.332 17.68 157.438 17.68C158.518 17.68 159.478 17.9067 160.318 18.36C161.158 18.8133 161.812 19.46 162.278 20.3C162.758 21.14 162.998 22.12 162.998 23.24ZM159.498 22.34C159.498 21.7533 159.298 21.2867 158.898 20.94C158.498 20.5933 157.998 20.42 157.398 20.42C156.825 20.42 156.338 20.5867 155.938 20.92C155.552 21.2533 155.312 21.7267 155.218 22.34H159.498Z" fill="#111827"/>
<defs>
<linearGradient id="paint0_linear_4284_122" x1="0" y1="22" x2="40" y2="22" gradientUnits="userSpaceOnUse">
<stop stop-color="#2563EB"/>
<stop offset="1" stop-color="#10B981"/>
</linearGradient>
<clipPath id="clip0_4284_122">
<path d="M11 12.25H29V30.25H11V12.25Z" fill="white"/>
</clipPath>
</defs>
</svg>
